<?xml version="1.0" encoding="UTF-8"?>
<svg preserveAspectRatio="xMidYMid slice" width="50px" height="68px" xmlns="http://www.w3.org/2000/svg" viewBox="0 0 283.46 382.74">
  <defs>
    <style>.cls-1,.cls-2,.cls-3,.cls-4{fill-rule:evenodd;}.cls-2,.cls-6{fill:#e37636;}.cls-2,.cls-3,.cls-4{stroke:#000;stroke-linecap:round;stroke-linejoin:round;}.cls-2,.cls-3{stroke-width:0.22px;}.cls-3,.cls-4,.cls-5{fill:#fff;}.cls-4{stroke-width:1.13px;}</style>
  </defs>
  <title>Middel 1</title>
  <g id="Laag_2" data-name="Laag 2">
    <g id="Laag_1-2" data-name="Laag 1">
      <polygon class="cls-1" points="0 0 0 205.72 141.73 382.74 283.46 205.72 283.46 0 0 0 0 0"></polygon>
      <polygon class="cls-2" points="4.25 5.74 4.25 204.52 141.73 375.56 279.21 204.52 279.21 5.74 4.25 5.74 4.25 5.74"></polygon>
      <polygon class="cls-3" points="141.73 375.56 279.21 204.52 279.21 53.91 141.73 53.91 141.73 375.56 141.73 375.56"></polygon>
      <polygon class="cls-4" points="3.43 38.27 279.05 38.27 279.05 74.22 3.43 74.22 3.43 38.27 3.43 38.27"></polygon>
      <path class="cls-5" d="M230.1,12c2.17,0,3,1.63,3,3.27a4.09,4.09,0,0,1-2.65,3.62c-2-.69-3.48-1.95-3.48-3.78A2.91,2.91,0,0,1,230.1,12ZM230,30.25a3.54,3.54,0,0,1-3.54-3.77,4.43,4.43,0,0,1,3.13-4.22c2.27.7,4,2.17,4,4.5A3.38,3.38,0,0,1,230,30.25Zm4-10c2.65-1.32,3.82-3.43,3.82-5.35,0-3-2.44-6-7.6-6-4.5,0-8.05,2.51-8.05,6.44,0,2,1.28,4,3.68,5.23v.09c-2.61,1.2-4.5,3.3-4.5,6.23,0,3.4,3,6.51,8.49,6.51,5.16,0,8.81-2.8,8.81-7,0-3-2.1-5-4.65-6.07v-.07Zm-30.49,1.53a26.79,26.79,0,0,1,2.92-.15c4.4,0,6.71,1.53,6.71,4.25S210.74,30,208.1,30a12.68,12.68,0,0,1-4.92-1l-1,3.35a15.73,15.73,0,0,0,6.19,1.17c6.12,0,9.94-3.57,9.94-7.91,0-4.88-4.26-7.09-8.8-7.09a11,11,0,0,0-1.45.09l.69-4.44h8.84V10.43H205.14l-1.58,11.35ZM195,17.08A45.27,45.27,0,0,0,199.5,9.8l-4.71.31a41.3,41.3,0,0,1-2.31,7.16l2.55-.19Zm-16.55,5.84c.14-1.73,1.17-4.05,3.61-4.05s3.3,2.23,3.27,4.05Zm11.45,3.24a9.39,9.39,0,0,0,.14-1.86c0-5.65-3-8.66-7.67-8.66-5.6,0-8.77,4.33-8.77,9.35,0,5.44,3.37,8.83,9.29,8.83a17.57,17.57,0,0,0,6.19-1l-.73-3.2a15,15,0,0,1-4.67.72c-2.75,0-5.09-1.19-5.23-4.17Zm-31.67-7.79L158,16h-4.4c.07,1.55.13,3.21.13,5.26V33.5h5.09V23.09a3.31,3.31,0,0,1,3.27-3.62c2.17,0,2.92,1.69,2.92,3.83V33.5h5.09V22.8c0-4.9-2.71-7.13-6.22-7.13a6.53,6.53,0,0,0-5.54,2.7Zm-19.64,4.55c.14-1.73,1.17-4.05,3.61-4.05s3.31,2.23,3.27,4.05Zm11.45,3.24a9.39,9.39,0,0,0,.14-1.86c0-5.65-3-8.66-7.67-8.66-5.6,0-8.77,4.33-8.77,9.35,0,5.44,3.37,8.83,9.29,8.83a17.53,17.53,0,0,0,6.19-1l-.72-3.2a15.14,15.14,0,0,1-4.68.72c-2.75,0-5.09-1.19-5.23-4.17ZM126,19.06l-.21-3h-4.37c.07,1.57.14,3.3.14,5.47v12h5.09v-9c0-3,1.76-4.4,4.06-4.4a7.2,7.2,0,0,1,1.31.1V15.73a6.19,6.19,0,0,0-1.14-.09,5.25,5.25,0,0,0-4.74,3.42ZM116.65,33.5V9.35h-5.09V33.5Zm-21.2.35a2.88,2.88,0,0,0,3-3.07,2.9,2.9,0,0,0-3-3.07,3,3,0,0,0-3,3.07,2.91,2.91,0,0,0,3,3.07ZM82.63,24.23c-.41,1.58-.75,3-1,4.58h-.1c-.31-1.55-.65-3-1-4.58L78,15.51H72.58l6.33,18h4.83l6.43-18H85l-2.36,8.72ZM68,33.85a2.88,2.88,0,0,0,3-3.07,2.9,2.9,0,0,0-3-3.07,3,3,0,0,0-3,3.07,2.92,2.92,0,0,0,3,3.07ZM55.2,24.23c-.41,1.58-.75,3-1.05,4.58h-.1c-.31-1.55-.65-3-1-4.58l-2.47-8.72H45.15l6.33,18h4.83l6.43-18H57.56L55.2,24.23Z"></path>
      <path class="cls-6" d="M195.67,51.79v2.82H198v6.65c0,1.6.1,5.19,5.16,5.19a11.3,11.3,0,0,0,3.13-.33l-.07-2.92a9,9,0,0,1-1.51.12c-1.43,0-2.09-.72-2.09-2.45V54.61h3.89V51.79H202.6V48L198,49.15v2.64Zm-7.37,0v8.87a2.74,2.74,0,0,1-2.88,2.69c-1.93,0-2.69-1.37-2.69-3.54v-8h-4.68v8.59c0,4.32,2.28,6.1,5.63,6.1a6.24,6.24,0,0,0,5.06-2.2h.1l.22,1.92h4.08c-.06-1.22-.16-2.69-.16-4.4v-10ZM170,59c0,2.56-1.2,4.71-3.42,4.71s-3.48-2.12-3.48-4.68c0-2.2.92-4.68,3.51-4.68C169,54.3,170,56.7,170,59Zm-3.29-7.47c-4.78,0-8.35,2.74-8.35,7.58,0,4.68,3.41,7.42,8.16,7.42,3.92,0,8.22-2.12,8.22-7.6,0-4.37-3.1-7.4-8-7.4Zm-16.51-5.17v7.94H141.9V46.31h-4.68V66.2h4.68V57.64h8.29V66.2h4.68V46.31Zm-35.14,7.42-.23-1.94h-4c.06,1.27.12,2.64.12,4.33V66.2h4.68V57.62a2.89,2.89,0,0,1,3-3c2,0,2.69,1.4,2.69,3.16V66.2H126V57.38c0-4-2.5-5.87-5.73-5.87a6.2,6.2,0,0,0-5.09,2.22ZM97,57.48a3.42,3.42,0,0,1,3.33-3.34c2.3,0,3,1.84,3,3.34Zm10.54,2.66a7.55,7.55,0,0,0,.12-1.52c0-4.66-2.78-7.14-7-7.14-5.16,0-8.07,3.57-8.07,7.71,0,4.47,3.1,7.26,8.54,7.26a18.14,18.14,0,0,0,5.7-.82L106.09,63a15.65,15.65,0,0,1-4.3.59c-2.53,0-4.68-1-4.81-3.44ZM76,49.31a14.21,14.21,0,0,1,2.22-.16c4.33,0,7,2.23,7,6.73,0,5.22-3,7.47-7.43,7.44A14.32,14.32,0,0,1,76,63.25V49.31ZM71.39,66.12a51.1,51.1,0,0,0,5.29.26c4.24,0,7.62-.8,9.83-2.43,1.87-1.38,3.67-3.86,3.67-8.13,0-3.59-1.36-6-3.67-7.6-2-1.37-4.77-2.07-8.82-2.07a43.61,43.61,0,0,0-6.3.42V66.12Z"></path>
      <path d="M141,91.52a88.17,88.17,0,0,1,63.18,26.16A89.35,89.35,0,0,1,141,270.2c-23.71,0-45.48-8.65-63.17-26.17a89.18,89.18,0,0,1-23.9-43.1c-.11-.47-.21-.94-.31-1.41a89.44,89.44,0,0,1,24.21-81.84A87.92,87.92,0,0,1,141,91.52Z"></path>
      <path class="cls-5" d="M200.23,245.42l-25,12.85.6,3a87.7,87.7,0,0,0,24.36-15.85Z"></path>
      <path class="cls-5" d="M226.31,200.88l-18,15.73-4.48,25.33a87.51,87.51,0,0,0,22.5-41.06Z"></path>
      <path class="cls-5" d="M207.34,123.63l-8.53,1,8.58,24.93,19.7,15a87.28,87.28,0,0,0-19.75-40.94Z"></path>
      <path class="cls-5" d="M121.13,95.47v13.69l23.06,6,26.34-7.33-1.72-10.06a88.35,88.35,0,0,0-47.68-2.26Z"></path>
      <path class="cls-5" d="M61.43,166.43l-6.56-2.06a88.31,88.31,0,0,0,.26,34.26l.11.55,4-.39,2.16-32.36Z"></path>
      <path class="cls-5" d="M75.3,122.81a87.41,87.41,0,0,0-20.09,39.9l7.8,2.44L85.21,149l5.89-24.1-15.8-2.07Z"></path>
      <path class="cls-5" d="M198.18,123l7.79-.89c-1-1.09-2-2.16-3-3.19a87.6,87.6,0,0,0-32.3-20.52l1.6,9.36L198.18,123Z"></path>
      <path class="cls-5" d="M207.3,215.22l16.33-13.84a146.54,146.54,0,0,0,1.11-36.64l-18.52-14-24.5,13.3-.95,35.18,26.53,16Z"></path>
      <path class="cls-5" d="M120.57,257.34l3.32,9.49A88,88,0,0,0,174.27,262l-.67-3.31-27.43-8.52-25.6,7.22Z"></path>
      <path class="cls-5" d="M60,200.43l-4.35.41c4,16.15,11.32,29.8,23.07,41.67l.14-.09,8.23-4.11L84,214.57,60,200.43Z"></path>
      <path class="cls-5" d="M142.82,147l-.14-.08-29.39,15.74-.24,37.58,32.66,18.1,33-19.06a.76.76,0,0,1,.32-.11l.93-34.48-.22-.07-37-17.62Z"></path>
      <path class="cls-5" d="M85.7,214.54l3.07,23.91a1,1,0,0,1,0,.17l30.87,17.21,25.2-7.1.24-28.85-33-18.29L85.7,214.54Z"></path>
      <path class="cls-5" d="M92.93,124.52,87,148.8l25.43,12.36,30-16-1.5-28.84a.69.69,0,0,1,0-.25l-20.73-5.37L92.93,124.52Z"></path>
    </g>
  </g>
</svg>
